<?xml version="1.0" encoding="utf-8"?>
<!-- Generator: Adobe Illustrator 25.3.1, SVG Export Plug-In . SVG Version: 6.00 Build 0)  -->
<svg version="1.1" id="Layer_1" xmlns="http://www.w3.org/2000/svg" xmlns:xlink="http://www.w3.org/1999/xlink" x="0px" y="0px"
	 viewBox="0 0 60 60" style="enable-background:new 0 0 60 60;" xml:space="preserve">
<style type="text/css">
	.st0{fill:#FFFFFF;}
	.st1{fill:#808080;}
	.st2{fill:none;stroke:#808080;stroke-width:4;stroke-linecap:round;stroke-miterlimit:10;}
</style>
<g>
	<path class="st0" d="M20.76,39.47c-10.32,0-18.71-8.39-18.71-18.71S10.44,2.05,20.76,2.05s18.71,8.39,18.71,18.71
		S31.08,39.47,20.76,39.47z"/>
	<path class="st1" d="M20.76,4.09c9.19,0,16.66,7.48,16.66,16.66s-7.48,16.66-16.66,16.66S4.09,29.95,4.09,20.76
		S11.57,4.09,20.76,4.09 M20.76,0C9.29,0,0,9.29,0,20.76s9.29,20.76,20.76,20.76s20.76-9.29,20.76-20.76S32.22,0,20.76,0L20.76,0z"
		/>
</g>
<g>
	<line class="st2" x1="55.5" y1="55.5" x2="35.44" y2="35.44"/>
</g>
</svg>
